<?xml version="1.0" encoding="utf-8"?>
<!-- Generator: Adobe Illustrator 22.1.0, SVG Export Plug-In . SVG Version: 6.00 Build 0)  -->
<svg version="1.1" id="Layer_1" xmlns="http://www.w3.org/2000/svg" xmlns:xlink="http://www.w3.org/1999/xlink" x="0px" y="0px"
	 viewBox="0 0 500 500" style="enable-background:new 0 0 500 500;" xml:space="preserve">
<style type="text/css">
	.st0{fill:none;stroke:#000000;stroke-width:1.7;stroke-miterlimit:10;}
</style>
<path class="st0" d="M161.8,142.2l3.8,2.7c0,0,1.8,1.2,5.3,1c3.5-0.2,139.8,0.8,139.8,0.8s3.7-1,4.5-2.2c0.8-1.2,3.3-1.1,3.3-1.1
	l0.8-5.3c0,0,21-8.7,39.5,2.5v3.7l2,0.5c0,0,11.2,12.3,20,41s15.8,71.7,15.8,71.7s4,29.8,1.5,47.5c-2.5,17.7-11.7,26.2-17,28.8
	c-5.3,2.7-18,11.3-34.8-2.5c-16.8-13.8-29-62.7-29-62.7s-3.5-3.2-5.3-3.5c-1.8-0.3-19,17.3-44.5-1.3l-57.2-0.3c0,0-21.7,18.8-45,0.2
	c0,0-5.3-0.3-8.3,12s-17.5,41.7-26,50.2s-29.5,19.5-45.3-0.5s-4.2-77.7-4.2-77.7s9.5-43.3,19.5-74c0,0,1.3-5.2,5-11.7
	c3.7-6.5,10.8-18.5,10.8-18.5l3.8-0.3l-0.3-4.2c0,0,15.5-9.8,39.5-1.8l0.3,5L161.8,142.2z"/>
<circle class="st0" cx="138.6" cy="193.5" r="37.2"/>
<circle class="st0" cx="341.1" cy="193.5" r="37.2"/>
<ellipse class="st0" cx="188.4" cy="240.9" rx="29.1" ry="30.6"/>
<ellipse class="st0" cx="291.1" cy="240.9" rx="29.1" ry="30.6"/>
<ellipse class="st0" cx="341.7" cy="171.1" rx="10.1" ry="10.6"/>
<ellipse class="st0" cx="365.4" cy="195" rx="10.1" ry="10.6"/>
<ellipse class="st0" cx="341.7" cy="219.3" rx="10.1" ry="10.6"/>
<ellipse class="st0" cx="317.9" cy="195" rx="10.1" ry="10.6"/>
<path class="st0" d="M142.8,193.5l7.2-6.7h11.6c0,0,7,6.4,0,15.5H150l-7.2-7.2V193.5z"/>
<path class="st0" d="M134.2,194.5l-7.3,6.7h-11.6c0,0-7-6.4,0-15.5h11.6l7.3,7.2V194.5z"/>
<path class="st0" d="M139.6,199.3l6.7,7.2v11.6c0,0-6.4,7-15.5,0v-11.6l7.2-7.2H139.6z"/>
<path class="st0" d="M137.6,189.1l-6.7-7.2v-11.6c0,0,6.4-7,15.5,0v11.6l-7.2,7.2H137.6z"/>
<path class="st0" d="M174,172h-0.7c-2.5,0-4.6-2.1-4.6-4.6V158c0-2.5,2.1-4.6,4.6-4.6h0.7c2.5,0,4.6,2.1,4.6,4.6v9.4
	C178.6,169.9,176.5,172,174,172z"/>
<path class="st0" d="M307,172.8h-0.7c-2.5,0-4.6-2.1-4.6-4.6v-9.4c0-2.5,2.1-4.6,4.6-4.6h0.7c2.5,0,4.6,2.1,4.6,4.6v9.4
	C311.6,170.7,309.5,172.8,307,172.8z"/>
<circle class="st0" cx="187.5" cy="239.2" r="19.9"/>
<circle class="st0" cx="292" cy="239.5" r="19.9"/>
<path class="st0" d="M186.4,145.9v54.9c0,0,0.1,4.8,7.4,4.9s94.5,0,94.5,0s5.8,0.2,5.4-7.5s0-51.6,0-51.6L186.4,145.9z"/>
</svg>
