<?xml version="1.0" encoding="utf-8"?>
<!-- Generator: Adobe Illustrator 15.0.0, SVG Export Plug-In . SVG Version: 6.00 Build 0)  -->
<!DOCTYPE svg PUBLIC "-//W3C//DTD SVG 1.1//EN" "http://www.w3.org/Graphics/SVG/1.1/DTD/svg11.dtd">
<svg version="1.1" id="Layer_1" xmlns="http://www.w3.org/2000/svg" xmlns:xlink="http://www.w3.org/1999/xlink" x="0px" y="0px"
	 width="500px" height="500px" viewBox="0 0 500 500" enable-background="new 0 0 500 500" xml:space="preserve">
<path fill-rule="evenodd" clip-rule="evenodd" fill="#D4B2B3" d="M360,66c1.078-1.655,8.922-1.655,10,0c-1.667,0-3.333,0-5,0
	S361.667,66,360,66z"/>
<path fill-rule="evenodd" clip-rule="evenodd" fill="#CD752C" d="M316,114c1.752,2.116,0.068,2.904,0,6
	C313.205,118.494,314.215,115.686,316,114z"/>
<path fill-rule="evenodd" clip-rule="evenodd" fill="#D78F58" d="M164,124c3.851-0.788,3.851,4.788,0,4
	C164,126.667,164,125.333,164,124z"/>
<path fill-rule="evenodd" clip-rule="evenodd" fill="#D78F58" d="M354,126c4.678-1.011,3.322,4.011,8,3
	C359.781,131.476,354.672,128.386,354,126z"/>
<path fill-rule="evenodd" clip-rule="evenodd" fill="#D78F58" d="M360,140c-1.011,2.816-4.247-0.276-6,0
	C354.707,136.405,358.693,138.594,360,140z"/>
<path fill-rule="evenodd" clip-rule="evenodd" fill="#D78F58" d="M348,141c2.09-0.423,2.648,0.686,4,1
	C351.82,144.9,347.247,144.41,348,141z"/>
<path fill-rule="evenodd" clip-rule="evenodd" fill="#D78F58" d="M360,154c0.473,3.14-2.691,2.642-3,5
	C354.331,157.537,357.419,153.513,360,154z"/>
<path fill-rule="evenodd" clip-rule="evenodd" fill="#D4B2B3" d="M403,156c1.664,6.348,1.664,19.652,0,26
	C403,173.333,403,164.667,403,156z"/>
<path fill-rule="evenodd" clip-rule="evenodd" fill="#D4B2B3" d="M233,186c2.28,1.387,0.373,6.96,1,10
	C231.72,194.613,233.627,189.04,233,186z"/>
<path fill-rule="evenodd" clip-rule="evenodd" fill="#D78F58" d="M254,240c3.485,0.515,1.467,6.534,2,10
	C253.812,248.189,255.83,242.17,254,240z"/>
<path fill-rule="evenodd" clip-rule="evenodd" fill="#CD752C" d="M146,268c-0.729,2.271,1.802,7.802-2,7
	c1.773-1.892,1.118-6.994-3-6C141.914,265.644,142.859,268.505,146,268z"/>
<path fill-rule="evenodd" clip-rule="evenodd" fill="#D78F58" d="M224,311c2.378-1.66,11.622-1.66,14,0
	C233.333,311,228.667,311,224,311z"/>
<path fill-rule="evenodd" clip-rule="evenodd" fill="#D78F58" d="M156,324c1.333,0,2.667,0,4,0c-0.529,0.804-1.043,1.623-1,3
	C156.818,327.182,155.818,326.182,156,324z"/>
<path fill-rule="evenodd" clip-rule="evenodd" fill="#D78F58" d="M165,328c4.182,0.655,2.182,3.194-1,4
	C163.577,329.91,164.686,329.353,165,328z"/>
<path fill-rule="evenodd" clip-rule="evenodd" fill="#D78F58" d="M305,357c2.83,3.503-0.777,13.444,2,17
	C302.561,372.106,306.168,362.165,305,357z"/>
<path fill-rule="evenodd" clip-rule="evenodd" fill="#D4B2B3" d="M399,361c1.655,1.078,1.655,8.922,0,10
	C399,367.667,399,364.333,399,361z"/>
<path fill-rule="evenodd" clip-rule="evenodd" fill="#D78F58" d="M147,368c2.319-0.319,3.839,0.161,5,1
	C152.174,370.631,145.458,371.019,147,368z"/>
<path fill-rule="evenodd" clip-rule="evenodd" fill="#FFFFFF" d="M275,373c0.67,5.738-5.03-1.099-4,5c-2.217,0.551-1.424-1.909-3-2
	C268.532,373.198,272.818,374.151,275,373z"/>
<path fill-rule="evenodd" clip-rule="evenodd" fill="#D4B2B3" d="M134,389c0.89,0.776,2.258,1.075,4,1c0.21,1.71-1.705,2.59,0,3
	C136.579,395.627,134.201,390.894,134,389z"/>
<path fill-rule="evenodd" clip-rule="evenodd" fill="#D78F58" d="M372,390c-1.563,3.34-0.947,2.65-3,5
	C365.511,394.48,368.059,388.991,372,390z"/>
<path fill-rule="evenodd" clip-rule="evenodd" fill="#D78F58" d="M242,429c4.018-2.315,12.319-0.347,18-1
	C255.981,430.315,247.68,428.347,242,429z"/>
<path fill-rule="evenodd" clip-rule="evenodd" fill="#D4B2B3" d="M332,86c6.145-7.189,13.61-13.056,22-18
	C346.667,74,339.149,79.816,332,86z"/>
<path fill-rule="evenodd" clip-rule="evenodd" fill="#D4B2B3" d="M330,88c-5.416,4.917-10.062,10.605-16,15
	C319.072,97.739,323.263,91.596,330,88z"/>
<path fill-rule="evenodd" clip-rule="evenodd" fill="#D4B2B3" d="M314,104c-2.537,2.796-4.486,6.181-8,8
	C308.537,109.204,310.486,105.819,314,104z"/>
<path fill-rule="evenodd" clip-rule="evenodd" fill="#D4B2B3" d="M290,133c4.18-6.486,8.239-13.094,14-18
	C299.232,120.899,295.247,127.58,290,133z"/>
<path fill-rule="evenodd" clip-rule="evenodd" fill="#D4B2B3" d="M202,118c-3.752-2.915-7.085-6.248-10-10
	C195.752,110.915,199.085,114.248,202,118z"/>
<path fill-rule="evenodd" clip-rule="evenodd" fill="#D4B2B3" d="M114,290c-2.246-57.919-41.351-161.085-1-220
	c-38.307,66.126,5.771,159.727,3,220C115.333,290,114.667,290,114,290z"/>
<path fill-rule="evenodd" clip-rule="evenodd" fill="#D4B2B3" d="M110,300c0.529,1.539,1.043,0.063,1-1
	c7.38,18.269-4.776,43.578,5,54c-1.163-0.163-1.779,0.221-2,1c-12.451-5.628-4.988-27.555-1-37
	C108.652,313.536,106.972,305.724,110,300z"/>
<path fill-rule="evenodd" clip-rule="evenodd" fill="#D4B2B3" d="M115,354c2.09-0.424,2.648,0.686,4,1c0.101,3.101-1.223,4.777-2,7
	c0.013,2.35,2.729-0.365,2-2c1.026,4.956-0.433,15.935,1,23c0.804-0.529,1.624-1.043,3-1c-2.659,2.57,1.924,1.43,2,4
	c-14.062-1.188-11.646-20.053-7-30C117.774,354.56,115.015,355.651,115,354z"/>
<path fill-rule="evenodd" clip-rule="evenodd" fill="#D4B2B3" d="M202,442c-5.94-3.394-3.277-15.39-6-22
	c-7.49,5.231-18.581,2.864-21-5c0.162-1.172,1.823-0.844,3-1c18.011,14.458,6.065-50.439,39-20c-6.792-0.995-20.007-7.745-20,4
	c-1.719,6.614-0.79,15.877-3,22c2.235-5.601,2.372,4.656,5,1c2.922,1.078-0.922,8.922,2,10c-1.958,1.868-0.309,3.662,0,6
	C200.507,440.14,204.447,439.642,202,442z"/>
<path fill-rule="evenodd" clip-rule="evenodd" fill="#D4B2B3" d="M210,441c0.275-2.059,3.725-0.941,4-3c2.928,0.261,3.072-2.261,6-2
	C217.234,438.234,213.892,439.892,210,441z"/>
<path fill-rule="evenodd" clip-rule="evenodd" fill="#D4B2B3" d="M232,432c6.705-4.295,21.067-0.933,31-2
	c3.456,0.877,6.928,1.739,9,4C263.109,429.39,243.683,430.547,232,432z"/>
<path fill-rule="evenodd" clip-rule="evenodd" fill="#D4B2B3" d="M350,415c2.762-1.572,7.203-1.463,9-4
	C357.581,413.914,354.787,415.454,350,415z"/>
<path fill-rule="evenodd" clip-rule="evenodd" fill="#D78F58" d="M366,398c-3.797,2.87-3.288,10.045-7,13
	c-1.797,2.537-6.238,2.428-9,4c-5.444,0.11-9.143-1.523-13-3c0.012-1.321,1.753-0.914,2-2c11.736,11.234,28.157-8.59,21-7
	c0.039-1.963-0.1-8.133-3-10C359.963,395.676,362.661,398.221,366,398z"/>
<path fill-rule="evenodd" clip-rule="evenodd" fill="#CD752C" d="M367,206c0.282,1.615-0.945,1.722-1,3c1.823-1.966,4.369,3.221,8,5
	c25.675-35.472,14.472-136.623-29-136c0.966,2.63,0.428,5.977,6,4c2.077-0.257,0.273-4.394,2-5c0.97,1.697,2.764,2.569,6,2
	c-2.142-3.134-5.464-4.243-2-9c4.381-0.729-0.806,1.987,2,2c0.049-3.952,4.481-3.519,6-6c1.667,0,3.333,0,5,0
	c25.516,15.484,28.813,53.187,33,90c0,8.667,0,17.333,0,26c3.92,27.815-13.961,55.729-11,90c1.989,23.027,28.259,65.803,3,73
	c1.269,5.398,2.972,10.362,4,16c0,3.333,0,6.667,0,10c-1.103,5.897-5.302,8.698-11,10c0.055,8.389-2.188,14.479-8,17
	c-4.424-2.198-5.631-2.292-13-2c2.465,2.455,3.605,2.176,1,3c-1.163,0.163-1.779-0.221-2-1c-3.339,0.221-6.037-2.324-9-5
	c-9.195-6.285-28.758-18.226-50-19c-2.777-3.556,0.83-13.497-2-17c0-0.667,0-1.333,0-2c-0.917-44.083-40.23-49.77-47-88
	c-1.883-4.451-2.246-10.421-2-17c-0.533-3.466,1.485-9.485-2-10c-8.525-0.809-10.216-8.45-14-14c0-0.333,0-0.667,0-1
	c-1.901-17.234,3.787-26.879,18-28c0.874-10.793,2.859-20.474,6-29c2.471-5.209,6.704-13.945,6-19c0.31-1.357,2.504-0.83,4-1
	c2.319-0.319,3.839,0.161,5,1c1.069,0.781,5.931,0.781,7,0c4.445,5.878,5.238,7.219,13,5c-4.456-2.392,1.444-6.879-1-10
	c3.188-0.854,3.796,0.871,5,2c-3.607-1.103,0.682,6.343-4,3c-6.048,25.638,25.884,16.394,30,29c7.566-3.326,19.056,9.614,29,15
	C361.467,196.866,364.696,200.97,367,206z M243,216c-4.007,18.126,12.664,28.955,23,18C283.185,213.963,244.155,185.226,243,216z
	 M268,236c1.453-4.432,5.133-4.24,5-1c0.389-1.833,1.587-3.386,0-5c-0.224,0.776-0.027,1.973-1,2c-1.084-2.561,3.038-4.767,0-6
	C272.019,230.057,266.019,233.3,268,236z M271,227c4.088-4.296,3.718-7.554,1-13c1.177-0.157,2.839,0.172,3-1
	c-4.055-4.185-6.902-10.623-10-13c-0.113,1.22-0.299,2.368-2,2c0.003-0.555-0.81-1.135-1,0C270.334,207.652,273.405,220.768,271,227
	z M328,286c8.329-26.188-31.974-45.69-44-21C267.028,299.844,319.698,312.103,328,286z M369,395c2.053-2.35,1.437-1.66,3-5
	C368.059,388.991,365.511,394.48,369,395z"/>
<path fill-rule="evenodd" clip-rule="evenodd" fill="#D78F58" d="M367,206c2.649,2.018,3.04,6.293,8,6
	c3.934-7.233-3.684-11.163,0-19c-0.789-2.539-3.497,2.813-5,0c-1.155-6.453,3.732-14.427-5-10c-1.555-3.555,3.396-0.604,3-3
	c-0.535-2.062-4.731-0.238-2-3c-1.163-0.163-1.779,0.221-2,1c1.319-5.813-3.648-4.996,0-13c-1.662-2.668-2.686-1.083-6-3
	c4.534-3.308,3.513-5.512,8-7c0.169-2.168-3.547-0.453-5-1c-0.59-3.881,4.591-10.007-1-10c1.149-2.851,5.658-2.341,8-4
	c-2.136-2.864-5.938-4.062-6-9c3.813,0.52,3.331,5.336,8,5c-2.292-4.362-9.353-7.448-3-11c-2.384-3.589-2.966,2.939-7,1
	c-1.394-3.399,2.588-6.816-3-9c0.257-2.34,4.394-0.576,5,0c-0.163-1.163,0.221-1.779,1-2c-0.577-3.298-3.776-1.434-6-1
	c0.798-2.203,2.008-3.993,5-4c-0.905-1.762-3.681-1.652-4-4c4.003-5.46,6.635-16.781,8-19c-26.37-0.154-50.036,33.451-58,51
	c-18.709,41.225,32.485,28.176,50,55c-9.944-5.386-21.434-18.326-29-15c-4.116-12.606-36.048-3.362-30-29
	c4.682,3.343,0.393-4.103,4-3c-1.204-1.129-1.813-2.854-5-2c2.444,3.121-3.456,7.608,1,10c-7.762,2.219-8.555,0.878-13-5
	c-1.069,0.781-5.931,0.781-7,0c5.962-3.038,7.521-10.479,11-16c5.247-5.42,9.232-12.101,14-18c0.649-1.017,2.299-1.034,2-3
	c3.514-1.819,5.463-5.204,8-8c0-0.333,0-0.667,0-1c5.938-4.395,10.584-10.083,16-15c0.443-0.89,0.878-1.789,2-2
	c7.149-6.184,14.667-12,22-18c2.928,0.261,3.072-2.261,6-2c1.667,0,3.333,0,5,0c-1.519,2.481-5.951,2.048-6,6
	c-2.806-0.013,2.381-2.729-2-2c-3.464,4.757-0.142,5.866,2,9c-3.236,0.569-5.03-0.303-6-2c-1.727,0.606,0.077,4.743-2,5
	c-5.572,1.977-5.034-1.37-6-4c43.472-0.623,54.675,100.528,29,136c-3.631-1.779-6.177-6.966-8-5
	C366.055,207.722,367.282,207.615,367,206z M338,91c-2.509-0.572-0.702-4.124-2-2c-2.231,0.147,1.298,2.52,0,5
	c2.178-3.204,7.607-1.195,5-5c2.503,0.125,3.131,1.909,4-1C341.283,86.21,339.476,89.135,338,91z M316,120
	c0.068-3.096,1.752-3.884,0-6C314.215,115.686,313.205,118.494,316,120z"/>
<path fill-rule="evenodd" clip-rule="evenodd" fill="#D4B2B3" d="M358,193c-17.515-26.824-68.709-13.775-50-55
	c7.964-17.549,31.63-51.154,58-51c-1.365,2.219-3.997,13.54-8,19c0.319,2.348,3.095,2.238,4,4c-2.992,0.007-4.202,1.797-5,4
	c2.224-0.434,5.423-2.298,6,1c-0.779,0.221-1.163,0.837-1,2c-0.606-0.576-4.743-2.34-5,0c5.588,2.184,1.606,5.601,3,9
	c4.034,1.939,4.616-4.589,7-1c-6.353,3.552,0.708,6.638,3,11c-4.669,0.336-4.187-4.48-8-5c0.062,4.938,3.864,6.136,6,9
	c-2.342,1.659-6.851,1.149-8,4c5.591-0.007,0.41,6.119,1,10c1.453,0.547,5.169-1.168,5,1c-4.487,1.488-3.466,3.692-8,7
	c3.314,1.917,4.338,0.332,6,3c-3.648,8.004,1.319,7.187,0,13c0.221-0.779,0.837-1.163,2-1c-2.731,2.762,1.465,0.938,2,3
	c0.396,2.396-4.555-0.555-3,3c8.732-4.427,3.845,3.547,5,10c1.503,2.813,4.211-2.539,5,0c-3.684,7.837,3.934,11.767,0,19
	c-4.96,0.293-5.351-3.982-8-6C364.696,200.97,361.467,196.866,358,193z M362,129c-4.678,1.011-3.322-4.011-8-3
	C354.672,128.386,359.781,131.476,362,129z M354,140c1.753-0.276,4.989,2.816,6,0C358.693,138.594,354.707,136.405,354,140z
	 M352,142c-1.352-0.314-1.91-1.423-4-1C347.247,144.41,351.82,144.9,352,142z M357,159c0.309-2.358,3.473-1.86,3-5
	C357.419,153.513,354.331,157.537,357,159z"/>
<path fill-rule="evenodd" clip-rule="evenodd" fill="#D78F58" d="M258,267c6.77,38.23,46.083,43.917,47,88
	c-1.656,0.2-1.086-7.475-2-2C304.353,308.145,257.689,310.84,258,267z"/>
<path fill-rule="evenodd" clip-rule="evenodd" fill="#D78F58" d="M272,226c3.038,1.233-1.084,3.439,0,6c0.973-0.027,0.776-1.224,1-2
	c1.587,1.614,0.389,3.167,0,5c0.133-3.24-3.547-3.432-5,1C266.019,233.3,272.019,230.057,272,226z"/>
<path fill-rule="evenodd" clip-rule="evenodd" fill="#D78F58" d="M262,202c0.19-1.135,1.003-0.555,1,0c1.701,0.368,1.887-0.78,2-2
	c3.098,2.377,5.945,8.815,10,13c-0.161,1.172-1.823,0.843-3,1c2.718,5.446,3.088,8.704-1,13
	C273.405,220.768,270.334,207.652,262,202z"/>
<path fill-rule="evenodd" clip-rule="evenodd" fill="#403C36" d="M243,216c1.155-30.774,40.185-2.037,23,18
	C277.425,214.379,250.201,194.425,243,216z"/>
<path fill-rule="evenodd" clip-rule="evenodd" fill="#D78F58" d="M270,149c0.704,5.055-3.529,13.791-6,19
	C265.048,160.715,268.394,155.727,270,149z"/>
<path fill-rule="evenodd" clip-rule="evenodd" fill="#D78F58" d="M113,70c0.667,0,1.333,0,2,0c0.186,1.481,2.417,0.917,4,1
	c0.168,2.168-3.547,0.453-5,1c0.112,2.555,3.349,1.985,6,2c0.964,4.63-4.139,3.195-6,5c0.745,2.255,5.609,0.391,8,1
	c0.898,2.928,0.898,3.072,0,6c-1.889-0.111-0.694-3.306-3-3c29.115,17.454,80.782,32.558,90,73c-45.185,3.182-66.469,39.695-86,62
	c1.397,2.937,6.693,1.974,9,4c0.177,2.699-3.729,4.758,1,6c0.306,2.306-2.889,1.111-3,3c1.425,3.423,5.425,0.47,7,2
	c-0.803,4.1-4.117-0.52-6,2c0.147,2.186,2.52,2.147,5,2c-2.117,3.789,2.13,4.503,4,7c-0.261,1.556-2.193,0.693-3,0
	c-0.868,3.868,1.673,4.327,3,6c1.481-0.186,0.917-2.417,1-4c2.762-0.428,0.938,3.728,3,4c-1.196,2.138-5.425,1.242-4,6
	c0.627,2.039,5.053,0.28,4,4c-1.496,0.171-3.69-0.357-4,1c0.85,2.934,2.517-1.301,5,0c-0.434,4.859,1.512,8.671,4,13
	c0.182,2.182-0.818,3.182-3,3c1.333,1.666,4.447,1.553,6,3c-0.625,2.136-6.155,0.938-7,0c1.108,1.892,1.276,4.725,2,7
	c-2.836-5.188-5.961,4.816-9,3c0,2,0,4,0,6c2.642-3.313,4.142,1.969,8,2c-0.125,2.209-4.242,0.425-6,1c-0.182,2.182,0.818,3.182,3,3
	c0.451,2.784-5.451-0.784-5,2c0.547,1.048,5.8-0.859,8,1c-0.565,2.081-2.857,3.232-1,5c1.576-0.091,0.783-2.551,3-2
	c0.271,4.146-1.313,3.896,0,7c-5.359-0.916-0.964-5.566-9-3c2.037,1.087,5.622,3.26,3,6c-3.353,0.687-3.656-1.678-4-4
	c-2.038,1.402,0.983,3.445-1,6c2.447-4.145,1.083,1.374,5,1c-2.979,0.465-4.887,5.188,1,4c-0.532,3.42-4.818,1.53-7,1
	c0.605,2.396,1.438,4.563,1,8c2.784,0.45-0.784-5.45,2-5c3.773-0.668-0.489,4.642,1,8c3.89,3.776,11.961,3.372,15,8
	c-0.779-0.221-1.163-0.837-1-2c-1.647,0.039-5.613,4.941-2,4c-2.287,2.423-3.543,1.207-7,1c-0.802,3.802,4.729,1.271,7,2
	c-0.112,2.555-3.349,1.984-6,2c0,1.667,0,3.333,0,5c-1.427-0.239-1.687-1.646-3-2c-1.391,6.849,7.287,10.423,2,15
	c0.112,2.555,3.349,1.984,6,2c0.415,6.114-0.29,7.448,2,12c2.826,0.826,2.591-1.409,5-1c0.212-3.213-3.566-2.434-5-4
	c0.241-2.578,1.721,1.373,4,0c0.873-3.206-1.539-3.128-3-4c2.76-3.754,6.065,3.711,4,5c3.537-0.88,5.152,2.568,6-1
	c0.169-2.802-5.085,1.452-2-1c0-1,0-2,0-3c3.646,6.189,6.49-0.83,13,0c-0.302-7.5-5.492-32.43,3-39c0.319-2.652-5.602,0.936-4-3
	c1.987-1.666,1.271,0.091,4,0c-1.338-5.334,1.338-2.666,0-8c1.278,0.055,1.385,1.282,3,1c0.617-4.283-3.256-4.077-3-8
	c1.57-0.43,0.854-3.146,4-2c0.745,3.078-2.745,1.922-2,5c10.561-8.29,6.609-15.732,22-19c35.376-8.774,31.434-90.188,27-139
	c-2.163,0.338-2.062-3.811-1-8c0.333,0,0.667,0,1,0c-0.58,3.247,0.681,4.652,1,7c0.235,4.098,0.49,8.177,2,11
	c0.055,4.612-0.443,9.776,1,13c0.627,3.04-1.28,8.613,1,10c0,1.333,0,2.667,0,4c23.485,93.855-67.327,99.988-58,176
	c0.85,1.483,2.517,2.15,5,2c0.451,2.784-5.451-0.784-5,2c-0.333,0-0.667,0-1,0c-4.485,0.648-5.823-0.014-9,3
	c-7.851,2.482-13.796,6.87-20,11c-3.304,0.029-2.446,4.221-5,5c-2.059-0.274-0.941-3.726-3-4c-2.511,1.617,1.776,4.813,2,7
	c-5.227-3.106-8.036-8.631-9-16c-2,0-4,0-6,0c-0.076-2.57-4.659-1.43-2-4c-1.376-0.043-2.196,0.471-3,1
	c-1.433-7.065,0.026-18.044-1-23c0.729,1.635-1.987,4.35-2,2c0.777-2.223,2.101-3.899,2-7c-1.352-0.314-1.91-1.424-4-1
	c-0.333,0-0.667,0-1,0c0.221-0.779,0.837-1.163,2-1c-9.776-10.422,2.38-35.731-5-54c0.043,1.063-0.471,2.539-1,1
	c0.633-4.033,3.936-5.397,4-10c0.667,0,1.333,0,2,0C118.771,229.727,74.693,136.126,113,70z M154,112c0,0.667,0,1.333,0,2
	c-6.212-2.37-7.006-4.184-12-8c3.36,0.111,5.29,2,7-1c-5.483,0.313-9.846-0.057-6-4c-0.606-1.727-4.743,0.077-5-2
	c-0.117-1.023,4.314-2.023,1-3c-39.432-16.34-37.49,101.846-11,116c2.315-13.018,10.593-20.074,16-30c-2.365-0.74-1.733-2.418-5-4
	c3.815-0.71,4.816-0.664,8,1c-1.919-4.331,3.7-6.193,1-8c-2.879,0.121-0.517,5.483-4,5c-0.743-4.077,3.223-3.443,2-8
	c5.934,2.332,5.399-0.729,7,5c1.693-12.554,5.693-17.075,17-17c0.299-1.966-1.35-1.983-2-3c5.15-1.183,9.701-2.966,14-5
	c-1.212-2.788-3.588-4.412-7-5c-1.58,3.913,2.596,2.07,3,4c-10.79-0.754-0.856-10.74,2-7c-0.779-0.221-1.163-0.837-1-2
	c-11.792,0.304-8.161-9.498-12-16c-4.646,0.979-6.037-1.296-9-2c-1.727,0.606,0.077,4.743-2,5c0.799-9.007-2.528-3.706-5-7
	C153.378,117.966,156.16,113.266,154,112z M138,393c-1.705-0.41,0.21-1.29,0-3c-1.742,0.075-3.11-0.224-4-1
	C134.201,390.894,136.579,395.627,138,393z M141,269c4.118-0.994,4.773,4.108,3,6c3.802,0.802,1.271-4.729,2-7
	C142.859,268.505,141.914,265.644,141,269z M125,379c2.506,3.216,2.236,4.017,9,4c-0.01-2.656,0.378-5.711-1-7
	C127.966,378.257,129.003,375.048,125,379z"/>
<path fill-rule="evenodd" clip-rule="evenodd" fill="#D4B2B3" d="M151,118c2.472,3.294,5.799-2.007,5,7c2.077-0.257,0.273-4.394,2-5
	c2.963,0.704,4.354,2.979,9,2c3.839,6.502,0.208,16.304,12,16c-0.163,1.163,0.221,1.779,1,2c-2.856-3.74-12.79,6.246-2,7
	c-0.404-1.93-4.58-0.087-3-4c3.412,0.588,5.788,2.212,7,5c-4.299,2.034-8.85,3.817-14,5c0.65,1.017,2.299,1.034,2,3
	c-11.307-0.075-15.307,4.446-17,17c-1.601-5.729-1.066-2.668-7-5c1.223,4.557-2.743,3.923-2,8c3.483,0.483,1.121-4.879,4-5
	c2.7,1.807-2.919,3.669-1,8c-3.184-1.664-4.185-1.71-8-1c3.267,1.582,2.635,3.26,5,4c-5.407,9.926-13.685,16.982-16,30
	c-26.49-14.154-28.432-132.34,11-116c3.314,0.977-1.117,1.977-1,3c0.257,2.077,4.394,0.273,5,2c-3.846,3.943,0.517,4.313,6,4
	c-1.71,3-3.64,1.111-7,1c4.994,3.816,5.788,5.63,12,8c0-0.667,0-1.333,0-2C156.16,113.266,153.378,117.966,151,118z M164,128
	c3.851,0.788,3.851-4.788,0-4C164,125.333,164,126.667,164,128z"/>
<path fill-rule="evenodd" clip-rule="evenodd" fill="#CD752C" d="M228,155c-1.062,4.189-1.163,8.338,1,8
	c4.434,48.813,8.376,130.226-27,139c-15.391,3.268-11.439,10.71-22,19c-0.745-3.078,2.745-1.922,2-5c-3.146-1.146-2.43,1.57-4,2
	c-0.256,3.923,3.617,3.717,3,8c-1.615,0.282-1.722-0.945-3-1c1.338,5.334-1.338,2.666,0,8c-2.729,0.091-2.013-1.666-4,0
	c-1.602,3.936,4.319,0.348,4,3c-8.492,6.57-3.302,31.5-3,39c-6.51-0.83-9.354,6.189-13,0c0,1,0,2,0,3c-3.085,2.452,2.169-1.802,2,1
	c-0.848,3.568-2.463,0.12-6,1c2.065-1.289-1.24-8.754-4-5c1.461,0.872,3.873,0.794,3,4c-2.279,1.373-3.759-2.578-4,0
	c1.434,1.566,5.212,0.787,5,4c-2.409-0.409-2.174,1.826-5,1c-2.29-4.552-1.585-5.886-2-12c-2.651-0.016-5.888,0.555-6-2
	c5.287-4.577-3.391-8.151-2-15c1.313,0.354,1.573,1.761,3,2c0-1.667,0-3.333,0-5c2.651-0.016,5.888,0.555,6-2
	c-2.271-0.729-7.802,1.802-7-2c3.457,0.207,4.713,1.423,7-1c-3.613,0.941,0.353-3.961,2-4c-0.163,1.163,0.221,1.779,1,2
	c-3.039-4.628-11.11-4.224-15-8c-1.489-3.358,2.773-8.668-1-8c-2.784-0.45,0.784,5.45-2,5c0.438-3.438-0.395-5.604-1-8
	c2.182,0.53,6.468,2.42,7-1c-5.887,1.188-3.979-3.535-1-4c-3.917,0.374-2.553-5.145-5-1c1.983-2.555-1.038-4.598,1-6
	c0.344,2.322,0.647,4.687,4,4c2.622-2.74-0.963-4.913-3-6c8.036-2.566,3.641,2.084,9,3c-1.313-3.104,0.271-2.854,0-7
	c-2.217-0.551-1.424,1.909-3,2c-1.857-1.768,0.435-2.919,1-5c-2.2-1.859-7.453,0.048-8-1c-0.451-2.784,5.451,0.784,5-2
	c-2.182,0.182-3.182-0.818-3-3c1.758-0.575,5.875,1.209,6-1c-3.858-0.031-5.358-5.313-8-2c0-2,0-4,0-6c3.039,1.816,6.164-8.188,9-3
	c-0.724-2.275-0.892-5.108-2-7c0.845,0.938,6.375,2.136,7,0c-1.553-1.447-4.667-1.334-6-3c2.182,0.182,3.182-0.818,3-3
	c-2.488-4.329-4.434-8.141-4-13c-2.483-1.301-4.15,2.934-5,0c0.31-1.357,2.504-0.829,4-1c1.053-3.72-3.373-1.961-4-4
	c-1.425-4.758,2.804-3.862,4-6c-2.062-0.272-0.238-4.428-3-4c-0.083,1.583,0.481,3.814-1,4c-1.327-1.673-3.868-2.132-3-6
	c0.807,0.693,2.739,1.556,3,0c-1.87-2.497-6.117-3.211-4-7c-2.48,0.147-4.853,0.186-5-2c1.883-2.52,5.197,2.1,6-2
	c-1.575-1.53-5.575,1.423-7-2c0.111-1.889,3.306-0.694,3-3c-4.729-1.242-0.823-3.301-1-6c-2.307-2.026-7.603-1.063-9-4
	c19.531-22.305,40.815-58.818,86-62c-9.218-40.442-60.885-55.546-90-73c2.306-0.306,1.111,2.889,3,3c0.898-2.928,0.898-3.072,0-6
	c-2.391-0.609-7.255,1.255-8-1c1.861-1.805,6.964-0.37,6-5c-2.651-0.015-5.888,0.555-6-2c1.453-0.547,5.168,1.168,5-1
	c-1.583-0.083-3.814,0.481-4-1c11.397-0.397,18.636,3.364,27,6c0.714,2.41,4.955,3.927,6,3c3.528,0.138,4.472,2.862,8,3
	c1.038,3.962,6.302,3.698,9,6c10.728,4.938,18.179,13.155,27,20c2.915,3.752,6.248,7.085,10,10c9.149,10.184,16.055,22.611,26,32
	C228,151.667,228,153.333,228,155z M152,369c-1.161-0.839-2.681-1.319-5-1C145.458,371.019,152.174,370.631,152,369z M231,233
	c0.316-4.294-4.625-2.605-5-2C227.907,231.426,227.81,233.857,231,233z M170,286c30.846,45.272,68.243-44.057,11-30
	c-14.448-2.677-18.107,24.593-10,37C173.667,289.713,171.547,289.635,170,286z M159,327c-0.043-1.377,0.471-2.196,1-3
	c-1.333,0-2.667,0-4,0C155.818,326.182,156.818,327.182,159,327z M164,332c3.182-0.806,5.182-3.345,1-4
	C164.686,329.353,163.577,329.91,164,332z M168,347c4.959-4.619,1.679,6.698,4,4c0.088-5.089-1.327-8.673-4-11
	C166.893,344.625,172.293,344.659,168,347z M171,370c-0.054-1.871,0.77-2.117,2-1c-2.673-4.192-0.687-7.572-1-15
	C168.256,357.327,170.269,365.523,171,370z"/>
<path fill-rule="evenodd" clip-rule="evenodd" fill="#D4B2B3" d="M230,162c1.598,2.735,2.059,6.608,2,11
	C230.49,170.177,230.235,166.098,230,162z"/>
<path fill-rule="evenodd" clip-rule="evenodd" fill="#D4B2B3" d="M234,200c25.335,95.551-65.95,108.438-58,180
	c-0.451-2.784,5.451,0.784,5-2c-2.483,0.15-4.15-0.517-5-2C166.673,299.988,257.485,293.855,234,200z"/>
<path fill-rule="evenodd" clip-rule="evenodd" fill="#D4B2B3" d="M166,383c3.177-3.014,4.515-2.352,9-3c0,1,0,2,0,3
	C172.172,381.768,168.828,381.768,166,383z"/>
<path fill-rule="evenodd" clip-rule="evenodd" fill="#D78F58" d="M142,76c2.555,0.445,4.598,1.402,6,3
	C146.955,79.927,142.714,78.41,142,76z"/>
<path fill-rule="evenodd" clip-rule="evenodd" fill="#D78F58" d="M156,82c2.414,2.586,7.202,2.798,9,6
	C162.302,85.698,157.038,85.962,156,82z"/>
<path fill-rule="evenodd" clip-rule="evenodd" fill="#CD752C" d="M345,88c-0.869,2.909-1.497,1.125-4,1c2.607,3.805-2.822,1.796-5,5
	c1.298-2.48-2.231-4.853,0-5c1.298-2.124-0.509,1.428,2,2C339.476,89.135,341.283,86.21,345,88z"/>
<path fill-rule="evenodd" clip-rule="evenodd" fill="#D4B2B3" d="M240,225c-3.945-8.339-1.269-19.727,2-29c2.18-2.381-0.5,2.044,0,4
	c6.145-3.864,7.618-14.919,3-22c1.551-0.101,2.75-1.299,4-4c0.396-2.396-4.555,0.555-3-3c12.923-6.531-9.539-30.331-17-16
	c-0.333,0-0.667,0-1,0c0-1.667,0-3.333,0-5c10.816-0.838,31.468-4.962,46-2c-1.496,0.17-3.69-0.357-4,1
	c-1.606,6.727-4.952,11.715-6,19c-3.141,8.526-5.126,18.207-6,29C243.787,198.121,238.099,207.766,240,225z"/>
<path fill-rule="evenodd" clip-rule="evenodd" fill="#FFFFFF" d="M229,155c7.461-14.331,29.923,9.469,17,16
	c-1.555,3.555,3.396,0.604,3,3c-1.25,2.701-2.449,3.899-4,4c4.618,7.081,3.145,18.136-3,22c-0.5-1.956,2.18-6.381,0-4
	c-3.269,9.273-5.945,20.661-2,29c0,0.333,0,0.667,0,1c-0.54,14.75,11.427,11.274,5,31c1.303,11.328,11.043,33.096-1,38
	c-0.105,3.438-0.516,7.183,2,8c-6.663,6.32-34.307,2.633-41,17c-0.413,4.413,0.271,7.729,2,10c0.163,1.163-0.221,1.779-1,2
	c1.445,0.227,4.809,1.825,7,4c-3.135,0.226-1.88,4.219-3,8c1.765-2.11,3.473-1.736,2-5c5.12,2.924,7.186,1.775,6,7
	c2.182,0.182,3.182-0.818,3-3c1.94-0.396,1.461,4.555-1,3c0.91,2.735,3.504-1.774,5,1c0.409,2.409-1.826,2.174-1,5
	c-12.923,4.706-18.833-13.296-29-8c-10.08,7.972,5.937,22.084,17,22c7.481,3.635,6.018,1.836,12,4c0.308-4.821,3.923-2.298,8,0
	c2.381-0.297-1.814-2.003-2-3c1.917-0.817,3.833,1.577,7-1c-4.647,6.024,16.213,2.128,20,10c0.573-4.787,6.189-0.569,10,0
	c0.367,4.193-3.258,0.714-5,1c1.672,1.662,4.049,2.618,4,6c-1.453,0.547-5.169-1.169-5,1c-1.53,4.53,6.53-0.53,5,4
	c-7.953,0.947-18.884,7.127-26,9c-5.447-1.998-13.687-1.989-22-3c-0.333,0-0.667,0-1,0c-32.935-30.439-20.989,34.458-39,20
	c0-0.333,0-0.667,0-1c3.853-4.646,3.15-15.16-1-18c-8.523,3.425-6.876,11.572-11,20c-8.95-0.4-9.945-6.43-13-8
	c1.906,0.125,2.801-4.642,4-8c0-0.333,0-0.667,0-1c1.85-0.15,0.614-3.387,2-4c-0.553-3.441-3.867-0.579-6,0
	c0.56,2.259,1.56-1.213,3,1c-0.38-2.419-6.482,7.598-12,4c-0.857-3.19,1.574-3.093,2-5c6.204-4.13,12.149-8.518,20-11
	c2.828-1.232,6.172-1.232,9,0c0-1,0-2,0-3c0.333,0,0.667,0,1,0c-7.95-71.562,83.335-84.449,58-180c0-1.333,0-2.667,0-4
	c-0.627-3.04,1.28-8.613-1-10c-1.443-3.224-0.945-8.388-1-13c0.059-4.392-0.402-8.265-2-11C229.681,159.652,228.42,158.247,229,155z
	"/>
<path fill-rule="evenodd" clip-rule="evenodd" fill="#D4B2B3" d="M205,320c6.693-14.367,34.337-10.68,41-17
	c-2.516-0.817-2.105-4.562-2-8c12.043-4.904,2.303-26.672,1-38c6.427-19.726-5.54-16.25-5-31c3.784,5.55,5.475,13.191,14,14
	c1.83,2.17-0.188,8.189,2,10c-0.246,6.579,0.117,12.549,2,17c-0.311,43.84,46.353,41.145,45,86c0.914-5.475,0.344,2.2,2,2
	c0,0.667,0,1.333,0,2c1.168,5.165-2.439,15.106,2,17c21.242,0.774,40.805,12.715,50,19c2.9,1.867,3.039,8.037,3,10
	c7.157-1.59-9.264,18.234-21,7c-0.333,0-0.667,0-1,0c0.096-4.521-3.736-6.447-9-8c-2.321,2.064-0.958,8.9,1,10c0,0.333,0,0.667,0,1
	c-0.967,7.346-11.071,15.166-19,9c2,0,4,0,6,0c-2.336-17.574-2.938-22.041,1-36c-2.971-1.029-5.715-2.285-6-6
	c-1.342,0.658-1.862,2.138-2,4c-7.393-2.095-16.71,2.604-10,12c-0.333,0-0.667,0-1,0c0-0.333,0-0.667,0-1s0-0.667,0-1
	c-0.778-2.739-3.651-5.302-5-2c-1,0-2,0-3,0c-1.454-0.443,0.102-0.878,0-2c-8.932,1.402-16.946,3.721-23,8c-0.667,0-1.333,0-2,0
	c-3.879,2.454-13.272-0.605-17,2c-13.12,0.787-23.341-1.325-31-6c8.313,1.011,16.553,1.002,22,3c7.116-1.873,18.047-8.053,26-9
	c1.53-4.53-6.53,0.53-5-4c-0.169-2.169,3.547-0.453,5-1c0.049-3.382-2.328-4.338-4-6c1.742-0.286,5.367,3.193,5-1
	c-3.811-0.569-9.427-4.787-10,0c-3.787-7.872-24.647-3.976-20-10c-3.167,2.577-5.083,0.183-7,1c0.186,0.997,4.381,2.703,2,3
	c-4.077-2.298-7.692-4.821-8,0c-5.982-2.164-4.519-0.365-12-4c14.988,2.801,21.095-13.617,29-1c-5.408-0.556,5.962,6.001,3,3
	c0-0.333,0-0.667,0-1c3.542,0.458,5.775,2.225,10,2c0.759,1.653,8.24,1.653,9,0c11.784,2.934,28.057-17.924,15-15
	c-0.302-2.635,1.385-3.282,4-3c-0.615-0.891-1.208-1.788,0-2c-0.294-2.378-2.706,1.111-3,2c-1.736-0.91-2.585-3.504-1-5
	c1.484,0.437-0.395,1.279,0,3c2.774-0.226,2.829-3.171,5-4c-3.056-13.03-14.913-10.634-17-7c-1.274,0.227-1.311,2.984,0,3
	c-4.419-2.947-4.979,5.074-11,3c-2.28,4.034,6.429,6.236,0,7c1.359,2.974,6.909,1.757,11,2c-1.852,1.763,0.258,3.097,2,4
	c-1.013-4.68,3.587-0.113,7-3c0.184-0.851-0.39-0.943-1-1c4.002-3.427-1.002,7.973,3,4c-2.268,3.399-6.095,5.238-11,6
	c-3.667,0-7.333,0-11,0c-11.558,0.558-14.281-7.719-20-13c-7.85,13.827-38.798,13.614-40-6c10.167-5.296,16.077,12.706,29,8
	c-0.826-2.826,1.409-2.591,1-5c-1.496-2.774-4.09,1.735-5-1c2.461,1.555,2.94-3.396,1-3c0.182,2.182-0.818,3.182-3,3
	c1.186-5.225-0.88-4.076-6-7c1.473,3.264-0.235,2.89-2,5c1.12-3.781-0.135-7.774,3-8c-2.191-2.175-5.555-3.773-7-4
	c0.779-0.221,1.163-0.837,1-2c18.411,36.798,90.492-10.962,31-19c-2.378-1.66-11.622-1.66-14,0
	C214.634,310.968,208.625,314.292,205,320z M352,404c-4.975,0.85-8.161-12.027-17-10c-0.88,3.213,3.296,1.37,3,4
	c-1.329,2.449-3.721-1.1-4,1C334.821,404.521,348.376,414.645,352,404z M268,376c1.576,0.091,0.783,2.551,3,2
	c-1.03-6.099,4.67,0.738,4-5C272.818,374.151,268.532,373.198,268,376z"/>
<path fill-rule="evenodd" clip-rule="evenodd" fill="#D4B2B3" d="M157,398c0-0.667,0-1.333,0-2c-1.823,3.178-4.807,5.193-9,6
	c4.361,1.287,3.119,4.095,9-3c-1.199,3.358-2.094,8.125-4,8c3.055,1.57,4.05,7.6,13,8c4.124-8.428,2.477-16.575,11-20
	c4.15,2.84,4.853,13.354,1,18c2.06-10.563-5.001-1.428-4,2c0,0.333,0,0.667,0,1c-13.294,1.628-21.098-2.235-24-11
	c-4.497,0.163-8.89,0.223-10-3c-0.224-2.188-4.511-5.383-2-7c2.059,0.274,0.941,3.726,3,4c2.554-0.779,1.696-4.971,5-5
	c-0.426,1.907-2.857,1.81-2,5c5.518,3.598,11.62-6.419,12-4c-1.44-2.213-2.44,1.259-3-1c2.133-0.579,5.447-3.441,6,0
	C157.614,394.613,158.85,397.85,157,398z"/>
<path fill-rule="evenodd" clip-rule="evenodd" fill="#D78F58" d="M330,412c-1.958-1.1-3.321-7.936-1-10c5.264,1.553,9.096,3.479,9,8
	c-3.852-3.355-1.689-4.641-8-5c0.518,4.386,0.313,3.284,1,7C330.667,412,330.333,412,330,412z"/>
<path fill-rule="evenodd" clip-rule="evenodd" fill="#FFFFFF" d="M334,399c0.279-2.1,2.671,1.449,4-1c0.296-2.63-3.88-0.787-3-4
	c8.839-2.027,12.025,10.85,17,10C348.376,414.645,334.821,404.521,334,399z"/>
<path fill-rule="evenodd" clip-rule="evenodd" fill="#D78F58" d="M330,413c3.204,0.236-3.18,5.642,2,5
	c-2.583,6.897-14.649,13.35-23,8c0.409-2.409-1.826-2.174-1-5c0.81,0.19,0.997,1.003,2,1c0.333,0,0.667,0,1,0
	C318.929,428.166,329.033,420.346,330,413z"/>
<path fill-rule="evenodd" clip-rule="evenodd" fill="#FFFFFF" d="M300,396c-6.71-9.396,2.607-14.095,10-12
	c0.138-1.862,0.658-3.342,2-4c0.285,3.715,3.029,4.971,6,6c-3.938,13.959-3.336,18.426-1,36c-2,0-4,0-6,0c-0.333,0-0.667,0-1,0
	c0.475-4.745-1.247-1.107-3-3c-1.834-7.486-4.798-15.786-7-20C300,398,300,397,300,396z"/>
<path fill-rule="evenodd" clip-rule="evenodd" fill="#D78F58" d="M291,392c-4.16-0.167-16.011,3.03-23,6
	c6.054-4.279,14.068-6.598,23-8C291.102,391.122,289.546,391.557,291,392z"/>
<path fill-rule="evenodd" clip-rule="evenodd" fill="#D78F58" d="M249,400c3.728-2.605,13.121,0.454,17-2
	C263.377,401.711,254.655,399.321,249,400z"/>
<path fill-rule="evenodd" clip-rule="evenodd" fill="#FFFFFF" d="M277,357c-4.002,3.973,1.002-7.427-3-4c0.61,0.057,1.184,0.149,1,1
	c-3.413,2.887-8.013-1.68-7,3c-1.742-0.903-3.852-2.237-2-4c-4.091-0.243-9.641,0.974-11-2c6.429-0.764-2.28-2.966,0-7
	c6.021,2.074,6.581-5.947,11-3c-1.311-0.016-1.274-2.773,0-3c2.087-3.634,13.944-6.03,17,7c-2.171,0.829-2.226,3.774-5,4
	c-0.395-1.721,1.484-2.563,0-3c-1.585,1.496-0.736,4.09,1,5c0.294-0.889,2.706-4.378,3-2c-1.208,0.212-0.615,1.109,0,2
	c-2.615-0.282-4.302,0.365-4,3C278.282,355.615,277.055,355.722,277,357z"/>
<path fill-rule="evenodd" clip-rule="evenodd" fill="#D78F58" d="M226,231c0.375-0.605,5.316-2.294,5,2
	C227.81,233.857,227.907,231.426,226,231z"/>
<path fill-rule="evenodd" clip-rule="evenodd" fill="#D78F58" d="M181,256c-9.944,3.794-16.057,17.265-11,30
	c1.547,3.635,3.667,3.713,1,7C162.893,280.593,166.552,253.323,181,256z"/>
<path fill-rule="evenodd" clip-rule="evenodd" fill="#403C36" d="M181,256c57.243-14.057,19.846,75.272-11,30
	C164.943,273.265,171.056,259.794,181,256z M194,276c21.666-3.984-15.222-16.878-1,0C193.333,276,193.667,276,194,276z"/>
<path fill-rule="evenodd" clip-rule="evenodd" fill="#D4B2B3" d="M193,276c-14.222-16.878,22.666-3.984,1,0
	c0.437-1.23,1.28-2.054,3-2c-2.116-2.787-2.904-0.693-6-2c-0.282,1.615,0.945,1.722,1,3c0.89-0.443,1.789-0.878,2-2
	C196.897,273.56,192.466,274.56,193,276z"/>
<path fill-rule="evenodd" clip-rule="evenodd" fill="#FFFFFF" d="M193,276c-0.534-1.44,3.897-2.44,1-3c-0.211,1.122-1.11,1.557-2,2
	c-0.055-1.278-1.282-1.385-1-3c3.096,1.307,3.884-0.787,6,2c-1.72-0.054-2.563,0.77-3,2C193.667,276,193.333,276,193,276z"/>
<path fill-rule="evenodd" clip-rule="evenodd" fill="#FFFFFF" d="M306,274c0.171-2.829-0.86-6.86,2-7
	C311.97,266.88,306.182,271.862,306,274z"/>
<path fill-rule="evenodd" clip-rule="evenodd" fill="#D4B2B3" d="M306,274c0.182-2.138,5.97-7.12,2-7
	C322.533,260.862,315.379,286.533,306,274z"/>
<path fill-rule="evenodd" clip-rule="evenodd" fill="#D78F58" d="M168,340c2.673,2.327,4.088,5.911,4,11
	c-2.321,2.698,0.959-8.619-4-4C172.293,344.659,166.893,344.625,168,340z"/>
<path fill-rule="evenodd" clip-rule="evenodd" fill="#D78F58" d="M172,354c0.313,7.428-1.673,10.808,1,15
	c-1.23-1.117-2.054-0.871-2,1C170.269,365.523,168.256,357.327,172,354z"/>
<path fill-rule="evenodd" clip-rule="evenodd" fill="#FFFFFF" d="M244,367c0,0.333,0,0.667,0,1c2.962,3.001-8.408-3.556-3-3
	C242.313,365.354,242.573,366.761,244,367z"/>
<path fill-rule="evenodd" clip-rule="evenodd" fill="#CD752C" d="M197,398c-0.007-11.745,13.208-4.995,20-4c0.333,0,0.667,0,1,0
	c7.659,4.675,17.88,6.787,31,6c5.655-0.679,14.377,1.711,17-2c0.667,0,1.333,0,2,0c6.989-2.97,18.84-6.167,23-6c1,0,2,0,3,0
	c-1.906,3.426,1.887,0.588,5,2c0,0.333,0,0.667,0,1c-2.672,8.725-0.5,31.229,4,22c2.812,0.188,2.737,3.263,5,4
	c-0.826,2.826,1.409,2.591,1,5c-4.732-0.268-5.631-4.369-9-6c-3.638,4.945,0.709,11.899-2,18c-5.796,5.233-23.827-13.028-35-8
	c-9.933,1.067-24.295-2.295-31,2c-5.319,0.015-7.472,3.194-12,4c-2.928-0.261-3.072,2.261-6,2c-4.843,1.295-9.952,3.644-13-1
	c-0.309-2.338-1.958-4.132,0-6c-0.116-4.884,0.539-10.538-1-14c-1.23,0.437-2.054,1.279-2,3
	C194.371,415.541,198.356,406.278,197,398z M260,428c-5.681,0.653-13.982-1.315-18,1C247.68,428.347,255.981,430.315,260,428z"/>
<path fill-rule="evenodd" clip-rule="evenodd" fill="#403C36" d="M299,395c0,0.333,0,0.667,0,1c0.594,7.073-1.903,17.237,3,20
	c-0.184,0.851,0.39,0.943,1,1C298.5,426.229,296.328,403.725,299,395z"/>
<path fill-rule="evenodd" clip-rule="evenodd" fill="#D78F58" d="M263,430c11.173-5.028,29.204,13.233,35,8
	c-6.491,7.167-16.9-4.154-26-4C269.928,431.739,266.456,430.877,263,430z"/>
<path fill-rule="evenodd" clip-rule="evenodd" fill="#D78F58" d="M214,438c-0.275,2.059-3.725,0.941-4,3c-3.22-0.22-4.231,1.769-8,1
	c2.447-2.358-1.493-1.86-1-5C204.048,441.644,209.157,439.295,214,438z"/>
<path fill-rule="evenodd" clip-rule="evenodd" fill="#D78F58" d="M197,398c1.356,8.278-2.629,17.541,1,22
	c-0.054-1.721,0.77-2.563,2-3c1.539,3.462,0.884,9.116,1,14c-2.922-1.078,0.922-8.922-2-10c-2.628,3.656-2.765-6.601-5-1
	C196.21,413.877,195.281,404.614,197,398z"/>
<path fill-rule="evenodd" clip-rule="evenodd" fill="#D78F58" d="M157,399c-5.881,7.095-4.639,4.287-9,3
	c4.193-0.807,7.177-2.822,9-6c0,0.667,0,1.333,0,2C157,398.333,157,398.667,157,399z"/>
<path fill-rule="evenodd" clip-rule="evenodd" fill="#D78F58" d="M174,415c-1.001-3.428,6.06-12.563,4-2c0,0.333,0,0.667,0,1
	c-1.177,0.156-2.838-0.172-3,1C174.667,415,174.333,415,174,415z"/>
<path fill-rule="evenodd" clip-rule="evenodd" fill="#CD752C" d="M300,399c-0.367,6.701,0.093,12.573,2,17
	c-4.903-2.763-2.406-12.927-3-20c0.333,0,0.667,0,1,0C300,397,300,398,300,399z"/>
<path fill-rule="evenodd" clip-rule="evenodd" fill="#403C36" d="M284,265c12.026-24.69,52.329-5.188,44,21
	C319.698,312.103,267.028,299.844,284,265z M308,267c-2.86,0.14-1.829,4.171-2,7C315.379,286.533,322.533,260.862,308,267z"/>
<path fill-rule="evenodd" clip-rule="evenodd" fill="#403C36" d="M207,330c-1.729-2.271-2.413-5.587-2-10
	c3.625-5.708,9.634-9.032,19-9c4.667,0,9.333,0,14,0C297.492,319.038,225.411,366.798,207,330z"/>
<path fill-rule="evenodd" clip-rule="evenodd" fill="#403C36" d="M244,367c-1.427-0.239-1.687-1.646-3-2
	c-7.905-12.617-14.012,3.801-29,1c-11.063,0.084-27.08-14.028-17-22c1.202,19.614,32.15,19.827,40,6c5.719,5.281,8.442,13.558,20,13
	c1.4,1.657,9.6,1.657,11,0c4.905-0.762,8.732-2.601,11-6c0.055-1.278,1.282-1.385,1-3c13.057-2.924-3.216,17.934-15,15c-3,0-6,0-9,0
	C249.775,369.225,247.542,367.458,244,367z"/>
<path fill-rule="evenodd" clip-rule="evenodd" fill="#D78F58" d="M254,369c3,0,6,0,9,0C262.24,370.653,254.759,370.653,254,369z"/>
<path fill-rule="evenodd" clip-rule="evenodd" fill="#D78F58" d="M299,394c-3.113-1.412-6.906,1.426-5-2
	C295.349,388.698,298.222,391.261,299,394z"/>
<path fill-rule="evenodd" clip-rule="evenodd" fill="#D78F58" d="M368,399c2.605-0.824,1.465-0.545-1-3
	c7.369-0.292,8.576-0.198,13,2C378.933,400.643,370.276,400.885,368,399z"/>
<path fill-rule="evenodd" clip-rule="evenodd" fill="#CD752C" d="M337,412c-4.472-2.8-3.843,2.791-5,6c-5.18,0.642,1.204-4.764-2-5
	c0-0.333,0-0.667,0-1c0.333,0,0.667,0,1,0c-0.688-3.716-0.482-2.614-1-7c6.311,0.359,4.148,1.645,8,5c0.333,0,0.667,0,1,0
	C338.753,411.086,337.012,410.679,337,412z"/>
<path fill-rule="evenodd" clip-rule="evenodd" fill="#D4B2B3" d="M303,417c-0.61-0.057-1.184-0.149-1-1
	c-1.907-4.427-2.367-10.299-2-17c2.202,4.214,5.166,12.514,7,20c1.753,1.893,3.475-1.745,3,3c-1.003,0.003-1.19-0.81-2-1
	C305.737,420.263,305.812,417.188,303,417z"/>
<path fill-rule="evenodd" clip-rule="evenodd" fill="#FFFFFF" d="M243,216c7.201-21.575,34.425-1.621,23,18
	C255.664,244.955,238.993,234.126,243,216z"/>
<path fill-rule="evenodd" clip-rule="evenodd" fill="#D78F58" d="M255,363c3.667,0,7.333,0,11,0
	C264.6,364.657,256.4,364.657,255,363z"/>
<path fill-rule="evenodd" clip-rule="evenodd" fill="#CD752C" d="M133,376c1.378,1.289,0.99,4.344,1,7c-6.764,0.017-6.494-0.784-9-4
	C129.003,375.048,127.966,378.257,133,376z"/>
</svg>
